<svg xmlns="http://www.w3.org/2000/svg" width="520" height="457" style="width:100%;height:100%;transform:translate3d(0,0,0);content-visibility:visible;background-color:transparent" viewBox="0 0 1080 950"><defs><clipPath id="a"><path d="M0 0h1080v950H0z"/></clipPath></defs><g clip-path="url(#a)"><g style="display:block"><path fill="#EBEBEB" d="M120 685H57v-26h63v26zM85 719H22v-27h63v27zM879 287h-63v-27h63v27zM844 320h-63v-26h63v26zM809 287h-63v-27h63v27zM1058 719h-63v-27h63v27zM1023 48h-63V21h63v27zM1058 81h-63V55h63v26zM120 48H57V21h63v27zM474 280H66v-24h408v24zM121 280v80H97v-80h24z"/><path fill="#DBDBDB" d="M97 280h24v25H97v-25z"/><path fill="#EBEBEB" d="M443 280v80h-24v-80h24z"/><path fill="#DBDBDB" d="M443 280v25h-24v-25h24z"/><path fill="#C7C7C7" d="M169 256V101h39v155h-39z"/><path fill="#DBDBDB" d="M169 110V93h39v17h-39zM169 138v-6h39v6h-39zM169 235v-17h44v17h-44z"/><path fill="#DBDBDB" d="M208 256V75h27v181h-27z"/><path fill="#EBEBEB" d="M213 162V92h16v70h-16z"/><path fill="#C7C7C7" d="M409 256 281 129l19-19 128 126-19 20z"/><path fill="#DBDBDB" d="m383 222-49-49 11-11 49 48-11 12z"/><path fill="#A6A6A6" d="M235 256V119h46v137h-46z"/><path fill="#C7C7C7" d="M235 241v-13h46v13h-46zM235 220v-5h46v5h-46z"/><path fill="#A6A6A6" d="M137 256V127h32v129h-32z"/><path fill="#C7C7C7" d="M137 242v-12h32v12h-32zM137 166v-12h32v12h-32zM137 178v-4h32v4h-32z"/></g><path fill="#FFE393" d="M52 99s-2-51-14-67C26 17-9 24-16 0-22-22 8-36 6-55c-2-24-58-24-54-77 4-62 82-84 132-34 23 23 12 46 38 57 25 11 57-4 81 13 25 18 12 74-26 78-34 4-45-2-56 12-11 15 14 29 6 42-7 12-30 16-43 27-16 13-27 36-27 36h-5zm64-48 10-5 7-5 4-7 3-10a18 18 0 0 1 2 17l-4 6c-3 3-7 5-11 5h-5l-6-1zM-17-31l-5 15c-2 5-2 10-1 14l2 7 3 6 10 13A34 34 0 0 1-28 8l-1-2-1-2-1-5a28 28 0 0 1 3-17l5-7 6-6zm78-161 10 1 4 1 3 1a59 59 0 0 1 17 13l6 8 2 2 1 2a150 150 0 0 1 5 14l1 4 1 5-5-8-3-4-1-2-1-1-3-4-1-2-2-2-2-3-3-3a110 110 0 0 0-29-22z" style="display:block" transform="matrix(2.37 0 0 2.37 540 503)"/><g style="display:block"><path fill="#37474F" d="m745 614 13-23-8-4c-2-1-3-3-3-6v-4c0-2 1-4 3-5l7-5-14-22-7 4h-6l-4-2c-2-1-3-3-3-6v-8l-27 1v8l-3 6a39 39 0 0 0-3 2h-7l-7-4-13 23 7 4c2 1 4 3 3 6l1 4-3 6-7 4 13 23 7-5h7l3 2c2 1 4 3 4 6v8l26-1v-8c0-2 2-4 4-5a38 38 0 0 0 3-2c2-2 5-2 7-1l7 4zm-23-15a22 22 0 1 1-23-37 22 22 0 0 1 23 37z"/><path fill="#455A64" d="m804 488-10-15-5 3h-4l-3-2-3-3v-6l-18 1v6l-2 4-3 1h-4l-5-2-9 16 5 3c2 1 3 2 3 4a26 26 0 0 0 0 3l-2 4-5 3 10 16 5-4h4l3 2 3 3v6l18-1v-5l2-5 3-1h4l5 2 9-16-5-3c-2-1-3-2-3-4a27 27 0 0 0 0-3l2-4 5-3zm-17 9a15 15 0 1 1-31 2 15 15 0 0 1 31-2z"/></g><g style="display:block"><path fill="#FFF" d="M833 447v1-1h-1v1h-1a11 11 0 0 0-1 0v1a7 7 0 0 1-1-1v1h-1l-1-1v1h-2v1h-2v-1h1-1v-2l-1-1v-4h-1v-2h-1v1l-1-1a3 3 0 0 1 1-1 3 3 0 0 1 0-1v-1a16 16 0 0 1 0-2h-1v-1a11 11 0 0 0-1-1v-3l1 1v-1h1v-1l-1-1v-1l1-1h2a12 12 0 0 1 0-1h1v1c0-1 0 0 0 0h1v-1h2v-1a10 10 0 0 1 0 1h1v-1h1v-1h1l1 1v-1h2v-1l1 1 1-1 1 2-1 1a3 3 0 0 1 0 1h-1v1h-1a5 5 0 0 0-1-1v1h-1a25 25 0 0 0-2 1h-1v1a5 5 0 0 1-1 0 5 5 0 0 1-1 0 3 3 0 0 1-1 0v-1h-1v1l1 1h-1l-3 1v1a3 3 0 0 0 1 0h1v1h1a19 19 0 0 0 0 1v3h1a3 3 0 0 0 1 0v-1h5v-1h1v1h1-1v1h1l-1 1h-2v1h-1l-1 1h-1a6 6 0 0 0-1 1v3h3a8 8 0 0 0 1 0v1a2 2 0 0 1 1 0v-2 1h1v-1 1h1v-1 2h1v-2l2-1 2-1v1h2v1h1-1v-2h2a7 7 0 0 1 0-1v2h1v2l-1 1h1l-1 1h-3v1h-2v-1h-1v1l-1 1v-1h-1zm-16-17h1v-1 1h-1zm1-2h1v1h1-2v-1zm5 18zm2 3h-1 1zm-3-14v1-1zm0-8zm0 2a6 6 0 0 0 0-1v1zm0-4zm1 1zm8 18v1-1zm-2-7zm-1-13v1l1-1h-1zm4 13zm-1-2v-1l1 1 1 1h-1v-1h-1zm-1-8v-1 1zm0-3h-1 1zm2 10zm-2-7h1-1zm3 7zm0 1zm-2-11zm3 10zm3 13v-1 1zm1-4h1c-1 0-1 0 0 0h-1zm1 2v1-1zm-1-4zm-4-16h1v-1l-1-1 1-1h-1 1v-1 1h1v-1s0 1 0 0h2a18 18 0 0 0 2 0h-1a5 5 0 0 1 0 1 26 26 0 0 1 0 1v1-1h-1v-1 1h-1v1h1-1v1-1l-1 1v1-1h-1v1l-1-1zm0-2v1-1zm5 18zm-4-17h1v-1a10 10 0 0 0-1 1zm5 19h1l-1-1v1zm1 0v-1 1zm1 1v1-1zm0-3v-1h-1a10 10 0 0 1 1 0h1-1v1a6 6 0 0 1 1 0v1h-1v-1zm-4-18v1-1zm0 0c0-1 0 0 0 0zm6 16v2l-1-1a18 18 0 0 0 0-1h1zM854 442v-1h-1v-1h-1v-2h1v-1h1l1-1h2v-1h1v-1 1h1v-1h1v-1h4v-1h1v1l2-1a44 44 0 0 0 1-1h2l1 1a4 4 0 0 1 1 0v2h1v-1h1v1h-1v1h-1v-1 1h-2 1v-1h-1v1h-1v1h-1v1h-3v1h-2l-1 1h-1v1h-3v1h-2a5 5 0 0 1 0 1h-2zm-2-10v-2h-1v-1h2a4 4 0 0 1 1-1v-1c0 1 0 1 0 0v1h1v-1h1v-1l1 1v-1h1a71 71 0 0 0 1-1h1v-1h2a12 12 0 0 1 0-1h3v-1h2v1h1v1l1-1v2l1-1v1h1a3 3 0 0 0-1 0v1a11 11 0 0 1-1 0v1h-3a7 7 0 0 0-1 0v1h-3l-1 1a11 11 0 0 1-1 0h-1v1h-2l-1 1h-1l-1 1h-2zm1-2v-1 1zm0 0v-1 1zm2-2v1-1zm3 8zm2 0h1v-1h-1v1zm0-1zm1 0zm0-1h1-1zm6-3a21 21 0 0 0 0 1h-1l1-1zm0 1zm-2-8zm3 9zm-2-10zm2-1zm3 12v1-1zm0-3zm1 3zM888 432v-1h-1v-1l-1-2-1-2a56 56 0 0 1-1-5l-1-2v-2l1 1h1v-1h1l1 1a36 36 0 0 0 1 2v1h1l-1-1v-1a8 8 0 0 1 0-1h1v-2h2v-1l1-1v-1h1a28 28 0 0 1 2 1v-1h1l1 1h1v3h1v1l1 1c-1 0-1 0 0 0v3l1-1v-1a17 17 0 0 1 1-2v-1a13 13 0 0 1 2-2l1-1h1a3 3 0 0 0 0-1v-1h2l-1-1 2-1a12 12 0 0 1 2 1h1v1a6 6 0 0 1 1 1v4h1v2l1 1a5 5 0 0 0 0 2h1v3h1v1h1-4l-1-2-1-2a318 318 0 0 1-3-6v1a13 13 0 0 0-1 2h-1v3l-1-1v1l-1 1h1v1l-1 1-1-1-1 1 1 1v2l-1 1h-1v1a15 15 0 0 0-1 0h-1v-1a47 47 0 0 0-1-4 4 4 0 0 0-1-1 4 4 0 0 1-1-1v-3h-1v-1 1-1h-1v-1 1-1h-2v1a160 160 0 0 0-1 3l-1 1h1v5l-1 1v1a10 10 0 0 1 0 1v2h-3v-1zm-3-12zm4 12v1-1zm0-1v1h1v-1h-1zm1-6v-1 1zm-1-6v1l1 1v-1h1-1l-1-1zm1-2v1-1zm1 0h1-1zm0 0h1v-1h-1v1zm9 6h1l-1-1v1zm-1-2zm2 0v1-1zm2-4zm1 2zm0-3v1h1v-1h-1zm1 3v1-1zm2-3v1-1zm2 0a7 7 0 0 0-1 0 5 5 0 0 0 1 0zm3-1 1-1h-1v1zm2 4v1-1zm2 7v-1 1zM932 423v-1h-3v1-1l-1-1v1a17 17 0 0 1-1 0v1h-3v1-2 1h-1v-1h-1v-1 1h-1v-2 1-1h-1v1h1-1l-1-1-1-1v-1h1v-1l-1 1v-6l1 1v-1h1-1v-1h1v1-2h-1v-1h1a23 23 0 0 1 1-2v3h1v-1h1a12 12 0 0 0-1-1h1l-1-1h1a43 43 0 0 1 1-1v-1h2l-1 1h1v-1h2-1v-1a1 1 0 0 1 1 0l1 1v-1h1a5 5 0 0 0 0 1h1l-1-2 1 2 1-1h-1 2v1h-1 2v1l1 1v1a9 9 0 0 1-1-1v1h-1a8 8 0 0 1 0-1h-1l-1 1v-1h-1v1-1 1h-1v1h-1a23 23 0 0 0-1 1h-3v7l-1-1v2h1v-1 1h1v1h1a7 7 0 0 1 0 1h4a26 26 0 0 1 2-1v1-1l2-1 1-1h3v2h-1l1-1h-1a3 3 0 0 0-1 1v1l-1 1h-1 1-1a3 3 0 0 1 0 1h-1l-1 1c0-1 0 0 0 0zm-14-5h1-1zm0-1zm1 1zm1 0zm-1-5h1l-1-1v1zm0 1zm2 5zm0-3v1s-1 0 0 0v-1zm-1-1zm2 6zm-1-6zm0 0zm-1-5v-1 1zm1 3zm0-1zm0 2 1 1h1v-1h-2zm3 7-1 1h1v-1zm-3-10h1-1zm1 2h1-1zm2-5zm0-1h1-1zm1 0a9 9 0 0 0 0 2 60 60 0 0 1 1-2h-1zm0-1 1 1h1v-1h-2zm1 2h1v-1h-1v1zm0 1zm1-1h-1 1zm0 1zm0 0 1-1h-1v1zm0-3zm0 0zm1 0zm4 16h1v-1h-1v1zm-4-14h1-1zm1-3v1h-1v1h1v-1h1-1v-1zm0 2v1-1zm5 14zm-4-15v-1 1zm0-1v-1 1zm5 13v1-1zm-3-13zm1 1v1-1zm0 1zm4 10h-1 1zM944 406h-4v1h-1l-1-1a23 23 0 0 1 0-1 6 6 0 0 1 0-2h1v-2a3 3 0 0 0 1 0v-1h1v-1h1a9 9 0 0 0 0-1 2 2 0 0 1 0-1h-4v1h1l1 1h-3v-1h-1v-2h1v-1h4v1h2v3h1-1v2s-1 0 0 0h-1v1h-1a21 21 0 0 1 0 1v1-1h2v2-2 1h1v-1 1h1v-1 1h1v-1 1h-1v1-1 1h-1v-1a1 1 0 0 0 0 1h1v1-1 1h-1zm-6-2v-1 1zm0-1s1 0 0 0zm1 0v1-1zm0 0zm0 0a41 41 0 0 1 0-1v1zm1 3zm-2-8zm2 6zm-1-2a12 12 0 0 1 1 0v1-1h-1v-1 1zm2 4h-1 1zm-1-5h-1 1zm-2-6zm3 10v1-1zm-1-1v-1 1zm0-2v1-1zm0 1zm1 1zm1 2h1-1zm0-3v1a3 3 0 0 0 0-1zm-1-2v-1 1zm1 4h1-1zm1 0h1v-1h-1v1zm-1-5v1l1-1h-1zm2 4zm0 0zm0 0zm0 0zm-1-5zm2 6v-1 1z"/></g><g style="display:block"><path fill="none" stroke="#263238" stroke-miterlimit="10" stroke-width="1.8960000000000001" d="M671 436s7-24 19-28 26 7 36 4c9-3 12-18 7-24"/><path fill="none" stroke="#FFC727" stroke-miterlimit="10" stroke-width="1.8960000000000001" d="m733 388-7-1c-4-2-10-9-10-9M733 387v-7c0-3-6-11-6-11M733 388l-9-6-7-8M733 388l-5-11-6-7"/><path fill="#FFC727" d="m633 468-83-6 73-46 83 16-73 36z"/><path d="m633 468-83-6 73-46 83 16-73 36z" opacity=".1"/><path fill="#FFC727" d="m593 483-7-24s22-15 41-19c19-3 44 2 44 2l3 26s-28-1-43 3c-16 3-38 12-38 12z"/></g><g style="display:block"><path fill="#FFF" d="M628 347c-12 1-27-17-37-43-11-29-10-54 2-59 11-4 29 15 39 43 5 14 8 27 8 38s-4 19-9 21h-3zm-32-100-2 1c-10 3-11 29-1 55s27 45 37 41c5-1 7-8 7-18 1-11-2-24-7-37-9-24-24-42-34-42z"/><path fill="#FFF" d="M586 340c-4 0-6 0-9-2-4-4-5-12-2-23 4-10 11-22 20-33s19-20 29-25c9-6 17-7 22-3s6 12 2 23c-3 10-10 22-19 33-15 18-32 30-43 30zm52-86c-4 1-8 2-13 5-10 5-20 14-28 25-9 10-16 22-19 32-3 9-3 17 1 20 8 7 30-6 48-27 9-11 16-23 19-33 3-9 2-17-1-20l-7-2z"/><path fill="#FFF" d="M634 319c-8 1-17 0-26-1-14-3-27-7-36-13-10-5-15-12-14-18 2-12 27-18 57-13 14 3 27 7 37 13 9 5 14 12 13 18s-8 11-19 13l-12 1zm-44-44c-16 1-28 5-29 13-1 4 3 10 12 15 9 6 22 10 35 12 14 3 28 3 38 1s16-7 17-11c1-5-4-11-13-16a119 119 0 0 0-61-14z"/><path fill="#FFF" d="M621 293a10 10 0 1 1-18 6 10 10 0 0 1 18-6z"/></g><g style="display:block"><path fill="#FFF" d="m473 264 6-3 3 5a1 1 0 0 0 3-2l-3-4 6-4c10-7 17-15 18-24 2-8-1-16-4-23l8-3c7-2 14-5 18-8l4-4 1-5v-1c1-5-1-11-3-17 14 2 28 4 36-9 3-6 4-13 2-20l-4-14c13 0 27 0 37-15 6-10 3-25-9-45l-2-4 3-1c15-2 27-4 30-13l-1-2-2 1c-2 7-14 9-27 11l-5 1c-7-12-15-20-15-20a1 1 0 0 0-2 1l14 20c-15 2-30 7-35 21-4 13 2 27 8 40l1 1c-12 0-24 1-32 13-8 10-5 21-2 30-11-1-22-1-29 8-2 3-3 5-3 8-2 8 2 16 5 24-9 4-18 9-21 18a43 43 0 0 0-2 24 46 46 0 0 0 3 9l-6 3a1 1 0 0 0 1 3zM587 64c6 10 12 22 13 32l-38-24c7-4 16-6 25-8zm-33 18c1-3 3-6 6-8l41 26a20 20 0 0 1-4 13l-43-31zm-1 16V85l42 31-8 5-34-23zm8 23-8-19 31 21c-6 2-14 2-21 2h-1l-1-4zm-21 9c6-3 13-3 20-3 4 9 7 16 6 24l-26-21zm-10 7 7-6 28 23h1a21 21 0 0 1-5 8l-31-25zm-3 10h-2l3-7 31 24c-2 3-5 4-8 4l-24-21zm-2 2 23 20-17-1h-2c-2-6-4-13-4-19zm-18 22c5-2 12-2 19-1 2 6 4 11 4 16l-23-15zm-8 6 5-5v1l26 16-1 4-2 2-30-16 2-2zm19 23-22-7v-11l28 15a41 41 0 0 1-6 3zm-17 6-4-10 17 6-5 1-8 3zm-2 4 4 10-21 2c4-6 10-9 17-12zm-19 16v-1h1l23-2v5l-26 5 2-7zm-2 10 26-4-3 6-23 8v-10zm1 17-1-4 21-7c-5 7-12 12-18 15l-2-4zM591 233z"/></g><g style="display:block"><g opacity=".7"><path fill="#FFF" d="M709 158a54 54 0 1 1-54-66l10-41-4-1 2-8 35 8-2 8-4-1-10 42c21 11 33 35 27 59z"/><path fill="none" stroke="#263238" stroke-miterlimit="10" stroke-width="2.37" d="M709 158a54 54 0 1 1-54-66l10-41-4-1 2-8 35 8-2 8-4-1-10 42c21 11 33 35 27 59z"/></g><path fill="#FFC727" d="M699 158a44 44 0 1 1-76-40c4 5 13 10 24 13 22 5 35-2 51 1 3 8 4 17 1 26z"/><path fill="#FFF" d="M614 136s6-30 38-33"/></g><g style="display:block"><path fill="#455A64" d="m926 272 15 53-22 50a55 55 0 0 1 7-103z"/><path fill="#FFC727" d="M1007 311a55 55 0 0 1-38 69c-13 4-26 2-38-3l23-50-16-53a55 55 0 0 1 69 37z"/></g><g style="display:block"><path fill="#FFC727" d="M851 262c6 46-21 61-22 75l-1 24-46 12-12-21c-8-11-39-12-56-55-11-29 0-81 49-94 50-13 84 28 88 59z"/><path fill="none" stroke="#FFF" stroke-miterlimit="10" stroke-width="2.37" d="m794 373-33-71M817 367l-5-78"/><path fill="none" stroke="#FFF" stroke-miterlimit="10" stroke-width="1.185" d="M763 305s7 14 13 12c7-2 8-25-1-23s7 29 18 26 10-33 2-31c-7 2 1 24 11 21 6-1 6-17 6-17"/><path fill="#455A64" d="m836 369-57 15-3-12 57-14 3 11zM840 382l-58 15-3-11 58-15 3 11zM843 395l-58 15-3-11 58-15 3 11z"/></g><path fill="none" stroke="#263238" stroke-linecap="round" stroke-linejoin="round" d="M209 170H-93s0 0 0 0h-116" style="display:block" transform="matrix(2.37 0 0 2.37 540 503)"/><g style="display:block"><path fill="#AD6359" d="M486 615c12 85 42 193 70 217 23 19 56 5 71-20 21-33-3-63-9-70s-41-64-80-129c-27-45-59-50-52 2z"/><path fill="#AD6359" d="M556 832c23 19 146 60 153 61 43 2 46-2 66-61 9-26-14-60-21-62-23-9-130-21-136-28-2-3-39-28-75 11-21 22-3 65 13 79z"/><path fill="#AD6359" d="M696 885c2 1 30 18 48 25 13 5 52 19 59 5 4-10-17-20-33-28-8-4-17-14-14-19 5-9 25 2 39 12 26 18 59 49 77 37 7-5 0-15-10-25 17 12 35 22 42 17 5-2 5-7 3-12 5 2 10 3 14-1 6-5 4-14-2-23l6-3c13-17-42-74-62-81-59-20-124-20-124-20-10 7-28 4-47 42-24 46 4 74 4 74z"/><path fill="#263238" d="M790 837c14 3 27 10 39 19 14 11 23 24 35 37 0 0 0 1 0 0l-36-35a98 98 0 0 0-38-21zM803 812c16 6 31 11 46 20 15 10 27 24 38 38a708 708 0 0 1-16-16c-12-13-25-23-41-30a381 381 0 0 0-27-12zM822 791c15 4 28 8 41 18 18 12 33 32 39 39a613 613 0 0 1 17 25c-13-18-27-35-43-51-7-8-15-15-25-20l-29-11z"/><path fill="#FFC727" d="m511 758 93-52s-36-65-73-114c-38-48-53-20-47 33 5 53 27 133 27 133z"/><path fill="#263238" d="M590 693a867 867 0 0 0-78 45 866 866 0 0 0 78-45z"/><path d="m588 715-77 43s-22-80-27-133c-4-34 1-57 14-58l90 148z" opacity=".1"/><path fill="#FFC727" d="M247 905h355c4-3-37-243-89-326-10-16-57-39-93-11-111 84-177 332-173 337z"/><path fill="#AD6359" d="M410 578c-85 95-191 273-173 308 7 14 41 19 63 11 56-20 75-116 75-119-1-2 44-68 71-164 19-65-18-57-36-36z"/><path fill="#FFC727" d="m310 695 101 39s26-70 39-130c14-60-17-53-54-15-38 38-86 106-86 106z"/><path fill="#263238" d="M442 656h-1l-5 10a466 466 0 0 0 5-21l-15 44-15 43-7-1v1l8 3 16-44 7-22 7-13zM411 714a867 867 0 0 0-84-31 866 866 0 0 0 84 31z"/><path fill="#AD6359" d="M237 886c24 45 185 37 223 28 9-2 51-34 19-96-20-40-69-45-76-44-15 3-28 7-28 4-1-2-156 73-138 108z"/><path fill="#E1E1E1" d="M664 726v3l2 6v3l6 30 28 121-100 21-166-40 71-183 38 9c18 3 78 6 121 30z"/><path fill="#CBCBCB" d="M664 726s19-10 36-14c17-5 55-12 61-14l11-1-72 192-100 21-166-40 59-183h12l38 9c18 3 78 6 121 30z"/><path fill="#455A64" d="m585 915 65-185-164-44-62 188 161 41z"/><path fill="#37474F" d="m585 915 24 1 65-185-24-1-65 185z"/><path fill="#455A64" d="m609 916 65-185 103-35-75 195-93 25z"/><path fill="#AD6359" d="M361 795c19-27 83-81 174-59 35 8 44 36 6 34-26-2-45-5-53-3 0 0 30 27 27 50-1 11-5 39-12 61l-11-1s-5 29-37 38c0 0-64-10-92-26-17-10-29-55-2-94z"/><path fill="#AD6359" d="M384 772c17-4 52-13 84-9 36 4 103 21 99 47-2 19-28 15-28 15s26 13 20 29c-5 16-25 11-25 11s14 11 6 24c-9 17-38-8-62 0-6 2-94-117-94-117z"/><path fill="#263238" d="M458 800a141 141 0 0 1 81 25 349 349 0 0 0-81-25zM455 835a159 159 0 0 1 79 30 374 374 0 0 0-79-30zM302 822c10-13 41-37 73-43v1a349 349 0 0 0-73 42z"/><path fill="#AD6359" d="M440 572c0 6 19 48 44 52 8 2 18-43 18-43l2-3 21-44-54-54-31 92z"/><path fill="#263238" d="m525 534-21 44-2 3-4 17a74 74 0 0 1-46-61l19-57 54 54z"/><path fill="#AD6359" d="M613 473c-17 103-81 104-103 100-20-3-88-18-81-122 6-104 60-128 106-123 47 6 96 42 78 145z"/><path fill="#263238" d="M602 431c-7-7-14-14-19-22l-5-12-3-14v14c0 5 2 10 5 14a48 48 0 0 0 22 20zM578 334c9 0 17 1 25 4 7 2 15 6 20 12s8 14 10 22 2 16 2 24c2-8 2-16 1-25-1-8-5-17-10-23-6-7-14-11-22-13-9-2-17-3-26-1zM485 320c-10-3-20-5-31-4-10 1-21 5-29 12l-8 14c-3 4-4 10-5 15-2 10 1 21 7 30-5-9-6-20-4-30 2-9 6-19 13-26l12-8 15-4c10-1 20-1 30 1zM575 377a78 78 0 0 1-13 29c-7 8-16 14-26 16s-21-1-31-4l-15-5-15-7 14 8 15 7c10 3 21 7 33 4 11-2 21-8 27-17 7-10 10-20 11-31z"/><path fill="#263238" d="M416 456c28 12 56-17 59-47 0 0 74 38 100-23 0 0 5 33 40 46v26c9 1 26-18 13-43 0 0 10-32-6-58-16-27-44-23-44-23s-12-22-42-29c-30-6-51 15-51 15s-41-6-57 19c-17 24-9 48-9 48s-14 7-17 32c-3 16 5 33 14 37zM586 487c11 2 5 25-5 22-10-2-5-24 5-22zm-53-11c-11-3-16 20-5 22 10 3 15-20 5-22z"/><path fill="#263238" d="M597 474c-3 0-5-2-7-3l-6-4c-1-1 0-4 1-4 3-3 6-2 9 0 4 1 6 3 8 6 1 3-2 7-5 5zm-70-13h7c3 0 5 1 8-1l1-4c-2-3-5-4-9-5l-9 3c-3 2-1 7 2 7zM521 538c1 2 2 5 5 5l8 1c-3 3-7 3-10 1-3-1-4-4-3-7 0-1 0-1 0 0zm35-18-2 15-3 1v-1c-9 0-17-5-21-14h1c6 6 12 9 20 11l2-18 10 5 4-39h2c0 19 0 30-2 45l-11-5z"/><path fill="#455A64" d="M505 511a36 36 0 1 1 49-30 36 36 0 0 1-49 30zm24-63-8-2a32 32 0 1 0 8 2zM583 530c-13-5-20-23-15-41 2-10 7-18 13-23 7-6 15-8 22-6s13 7 16 15 4 17 2 27c-5 19-21 32-35 29l-3-1zm21-65h-2c-6-2-12 0-17 5-6 4-10 12-12 20-5 17 2 33 14 36s25-9 29-26c2-8 1-16-1-23-3-6-7-10-11-12z"/><path fill="#455A64" d="m552 485-2-4c6-2 17-5 23 5l-4 2c-5-9-16-3-17-3zM406 457l-3-2c1-2 13-14 22-14 9 1 61 19 63 20l-1 4c-15-5-56-19-62-19-6-1-16 8-19 11z"/><path fill="#AD6359" d="M446 464s-13-37-30-33c-16 4-11 54 4 65 15 10 25-4 25-4l1-28z"/><path fill="#263238" d="M418 445v1c10 8 14 20 15 32-2-5-6-8-13-6v1c5 0 8 2 10 7 2 3 3 7 3 10 1 2 3 2 3 0 4-15-2-39-18-45z"/></g><g style="display:block"><path fill="#455A64" d="M593 915v13h286v-13H593z"/><path fill="#A6A6A6" d="M593 915v13h144v-13H593z"/><path fill="#C7C7C7" d="M734 928h278l40-190H773l-39 190z"/><path fill="#FFF" d="M871 837c-1 10 6 19 17 19 10 0 19-9 20-19s-6-18-16-18c-11 0-20 8-21 18z"/></g><g style="display:block"><path fill="#37474F" d="M325 925H87v-28h238v28z"/><path fill="#455A64" d="M144 925h-10v-28h10v28zM297 925h-23v-28h23v28z"/><path fill="#FFF" d="m189 905-6 7h-1l-6-7v13l-1 1v-16h1l6 8 7-8c0-1 0-1 0 0h1v15l-1 1v-14zM204 915h-8l-1 4h-1l-1-1 7-15v-1l1 1 6 15v1h-1l-2-4zm-7-1h7l-4-9-3 9zM213 904h-5l-1-1 1-1h12v2h-6v15l-1-1v-14zM235 911h-9v7l-1 1v-17l1 1v7h9v-7l1-1 1 1v15l-1 1-1-1v-7z"/><path fill="#FFC727" d="M306 782H68v-36h238v36z"/><path fill="#FFF" d="m183 770 1-1 6 3 4-1 1-3-1-2-4-2-4-1c-2-1-2-2-2-3s0-2 2-3l4-1 5 2c1 0 1 0 0 0v1l-5-2-4 1-1 2 1 2 4 1 5 2 1 3c0 1 0 3-2 3l-4 2c-3 0-5-2-7-3zM209 756c3 0 5 0 6 2 0 0 1 0 0 0l-1 1-5-2c-4 0-8 3-8 7s4 7 8 7l5-1h1v1l-6 2c-5 0-9-4-9-9 0-4 4-8 9-8zM221 757v-1l1 1v15l-1 1v-16zM228 757l1-1h9l1 1h-9v7h8l-1 1h-7v6h8l1 1-1 1h-9l-1-1v-15zM245 758v14l-1 1-1-1v-15l1-1h1l10 14v-13l1-1 1 1v15l-1 1-1-1-10-14zM271 756c3 0 5 0 6 2l-1 1-5-2c-4 0-8 3-8 7s4 7 8 7l5-1h1v1l-6 2c-5 0-9-4-9-9 0-4 4-8 9-8zM283 757v-1h9l1 1h-9v7h8l-1 1h-7v6h8l1 1-1 1h-9v-16z"/><path fill="#455A64" d="M148 782H88v-36h60v36z"/><path fill="#FFC727" d="M137 757H99v-6h38v6zM137 767H99v-6h38v6zM137 777H99v-6h38v6z"/><path fill="#37474F" d="M320 819H77v-37h243v37z"/><path fill="#FFC727" d="M277 807h-58v-13h58v13zM307 801c0 4-4 7-8 7s-8-3-8-7 4-8 8-8 8 4 8 8z"/><path fill="#FFF" d="M100 792h10v1h-9v6h8v2h-8v6h9v1h-10v-16zM116 794v14h-1v-16h1l11 14v-14h1v16h-1l-11-14zM142 801l-1-1h7v6h-1c-1 2-3 2-5 2-5 0-10-3-10-8s5-9 10-9l5 2 1 1h-1l-5-1c-5 0-8 3-8 7s3 7 8 7l4-1v-5h-4zM153 808v-16h1v15h8l1 1h-10zM167 792h1v16h-1v-16zM174 805h1l6 2 3-1 2-2-1-3-5-1-4-1-2-3c0-2 1-3 2-3l5-2 5 2v1h-1l-4-2-4 1-2 3 2 2 4 1 4 2c1 0 2 1 2 3l-2 3-4 1-7-2v-1zM202 801h-9v7h-1v-16h1v7h9v-7h1v16h-1v-7z"/><path fill="#263238" d="M189 852H67v-33h122v33zM303 852H189v-33h114v33z"/><path fill="#FFF" d="M189 849H67v-26h122v26z"/><path fill="#DBDBDB" d="M77 828h112-17l-39 1-17-1H77zM77 833h112l-17 1h-56l-39-1zM77 838h112l-17 1h-56l-39-1zM77 843h112l-17 1h-56l-39-1z"/><path fill="#455A64" d="M230 852h-16v-33h16v33zM297 852h-11v-33h11v33z"/><path fill="#FFC727" d="M160 852h138v45H160v-45zM55 852h105v45H55v-45z"/><path fill="#FFF" d="M160 857h138v36H160v-36z"/><path fill="#DBDBDB" d="m289 885-32 1h-65a3004 3004 0 0 1 0-1h97zM289 878l-32 1h-65a3003 3003 0 0 1 0-1h97zM289 871l-32 1h-65a3004 3004 0 0 1 0-1h97zM289 864l-32 1h-65a3004 3004 0 0 1 0-1h97z"/><path fill="#455A64" d="M91 897H71v-45h20v45z"/></g></g></svg>